<svg xmlns="http://www.w3.org/2000/svg" width="64" height="14" fill="none" xmlns:v="https://vecta.io/nano"><g clip-path="url(#A)" fill-rule="evenodd" fill="#fffffe"><path d="M60.16 7.015c0 3.414-.498 4.198-2.66 4.198s-2.66-.785-2.66-4.198c0-3.455.497-4.25 2.66-4.25s2.66.795 2.66 4.25zm-2.66-7c-4.484 0-5.78 1.568-5.78 7 0 5.382 1.297 6.938 5.78 6.938s5.78-1.556 5.78-6.938c0-5.422-1.297-7-5.78-7zm-6.407 11.112H47.06V.575a.41.41 0 0 0-.446-.447H44.42a.41.41 0 0 0-.446.447v12.828a.41.41 0 0 0 .446.464h6.672a.41.41 0 0 0 .447-.447v-1.847a.41.41 0 0 0-.447-.446zM36.737 7.544h-2.24L35.56 3.03c.1-.342.137-.377.27-.377h.958c.13 0 .2.035.28.377l1.063 4.515h-1.395zm5.814 5.837L39.9 2.265c-.504-1.927-.88-2.2-3-2.2l-.8.003-.392-.003c-2.1 0-2.486.272-3 2.2L30.06 13.38c-.04.155-.022.28.05.373s.185.137.34.137h2.2c.32 0 .38-.242.424-.42l.73-3.093h4.97l.73 3.093c.045.18.105.42.424.42h2.2c.154 0 .268-.046.34-.137s.1-.218.05-.373zM30.784.265c-.07-.1-.185-.137-.34-.137h-2.2c-.32 0-.38.242-.424.42l-2.46 10.44c-.1.342-.114.377-.23.377h-.57c-.1 0-.14-.035-.23-.377L21.863.55c-.045-.18-.105-.42-.424-.42h-2.2c-.154 0-.268.046-.34.137s-.1.218-.05.373l2.65 11.116c.504 1.927.88 2.2 3 2.2l.74-.003-.024.003c2.1 0 2.486-.272 3-2.2L30.835.638c.04-.155.022-.28-.05-.373zM16.537.13h-2.192c-.28 0-.447.173-.447.464v12.8a.41.41 0 0 0 .447.464h2.192c.28 0 .447-.173.447-.464V.593c0-.3-.167-.464-.447-.464zM12.07 13.213l-3.118-4.5.925-.676c1.06-.8 1.634-1.55 1.805-2.392.136-.67.192-1.9.01-2.956C11.348.717 9.964.1 6.667.1A1288.2 1288.2 0 0 1 .625.084C.416.083.078.15.062.745l-.014 12.88c.016.093.15.23.463.23h2.193c.313 0 .447-.14.447-.464L3.134 2.698l3.8.005c.692 0 1.28.15 1.5.282.4.25.544.606.562 1.1.03.845-.368 1.332-.963 1.718l-2.22 1.375-.445.273a.36.36 0 0 0-.106.553l3.425 5.378c.2.314.4.463.847.463H11.7c.275 0 .384-.132.424-.212.065-.127.042-.284-.064-.43z"/></g><defs><clipPath id="A"><path fill="#fff" d="M0 0h63.308v14H0z"/></clipPath></defs></svg>